# xmcd CD database file
#
# Track frame offsets:
#	150
#	18527
#	28900
#	50472
#	73612
#	95092
#	111990
#	133637
#	157425
#	182742
#
# Disc length: 2885 seconds
#
# Revision: 1
# Processed by: cddbd v1.4PL0 Copyright (c) Steve Scherf et al.
# Submitted via: CDex 1.51
#
DISCID=950b430a
DTITLE=Jim Roberts - Looking Good
DYEAR=1999
DGENRE=Jazz
TTITLE0=Summertime
TTITLE1=Prelude
TTITLE2=Aranjuez
TTITLE3=I Should Care
TTITLE4=I Can't Get Started
TTITLE5=Little Flower
TTITLE6=Looking Good
TTITLE7=Somewhere Over The Rainbow
TTITLE8=Autumn Leaves
TTITLE9=Birdland
EXTD=YEAR: 1999
EXTT0=
EXTT1=
EXTT2=
EXTT3=
EXTT4=
EXTT5=
EXTT6=
EXTT7=
EXTT8=
EXTT9=
PLAYORDER=
